<?xml version="1.0" standalone="no"?>
<!DOCTYPE svg PUBLIC "-//W3C//DTD SVG 20010904//EN"
 "http://www.w3.org/TR/2001/REC-SVG-20010904/DTD/svg10.dtd">
<svg version="1.0" xmlns="http://www.w3.org/2000/svg"
 width="400.000000pt" height="400.000000pt" viewBox="0 0 400.000000 400.000000"
 preserveAspectRatio="xMidYMid meet">

<g transform="translate(0.000000,400.000000) scale(0.100000,-0.100000)"
fill="#000000" stroke="none">
<path d="M2397 2548 c-19 -29 -80 -132 -136 -228 -177 -304 -235 -395 -256
-398 -16 -2 -36 24 -95 119 -41 67 -96 156 -122 198 -26 42 -56 92 -67 111
-12 19 -31 53 -44 74 -29 49 -40 54 -55 21 -16 -35 -15 -44 3 -21 8 11 15 15
15 9 0 -14 -27 -36 -33 -26 -3 7 -2 69 2 96 0 5 6 5 13 1 7 -4 8 -3 4 5 -4 6
-12 8 -18 5 -6 -4 -9 -1 -6 7 5 13 -17 69 -27 69 -2 0 1 -14 7 -30 6 -20 7
-35 1 -43 -6 -6 -18 -36 -28 -64 -12 -34 -25 -53 -35 -53 -10 0 -23 -19 -34
-52 -25 -70 -32 -76 -41 -36 -8 33 -8 33 -17 -19 -5 -29 -13 -53 -18 -53 -4 0
-10 -9 -13 -21 -3 -12 -10 -18 -17 -14 -7 4 -14 -2 -18 -16 -6 -22 -7 -21 -13
11 -4 22 -8 -11 -10 -85 -3 -118 -3 -119 -8 -40 l-6 80 -7 -110 c-12 -178 -21
-599 -14 -623 7 -21 12 -22 152 -22 l144 0 0 273 c0 285 4 316 42 302 16 -6
35 -34 93 -135 11 -20 58 -99 105 -177 l84 -141 51 -4 c95 -7 96 -7 185 148
25 43 62 105 82 138 20 34 51 87 68 118 18 31 38 59 44 61 36 14 39 -5 43
-290 2 -153 6 -284 8 -290 5 -16 275 -19 291 -4 5 6 7 235 4 603 l-5 593 -132
3 -132 3 -34 -53z"/>
<path d="M1613 2469 c-1 -12 -1 -20 0 -18 2 2 9 12 16 22 11 14 11 17 -1 17
-7 0 -14 -10 -15 -21z"/>
</g>
</svg>
